<mxfile host="app.diagrams.net" modified="2024-05-04T11:37:21.158Z" agent="Mozilla/5.0 (Windows NT 10.0; Win64; x64) AppleWebKit/537.36 (KHTML, like Gecko) Chrome/124.0.0.0 Safari/537.36 Edg/124.0.0.0" etag="AZCP3OfcR4KLXYdflLsO" version="24.3.1" type="github">
  <diagram id="C5RBs43oDa-KdzZeNtuy" name="Page-1">
    <mxGraphModel dx="996" dy="586" grid="0" gridSize="10" guides="1" tooltips="1" connect="1" arrows="1" fold="1" page="0" pageScale="1" pageWidth="827" pageHeight="1169" math="0" shadow="0">
      <root>
        <mxCell id="WIyWlLk6GJQsqaUBKTNV-0" />
        <mxCell id="WIyWlLk6GJQsqaUBKTNV-1" parent="WIyWlLk6GJQsqaUBKTNV-0" />
        <mxCell id="-oyaNa7tDfFK7rU9DXdF-5" value="" style="edgeStyle=orthogonalEdgeStyle;rounded=0;orthogonalLoop=1;jettySize=auto;html=1;" edge="1" parent="WIyWlLk6GJQsqaUBKTNV-1" source="-oyaNa7tDfFK7rU9DXdF-0" target="-oyaNa7tDfFK7rU9DXdF-4">
          <mxGeometry relative="1" as="geometry" />
        </mxCell>
        <mxCell id="-oyaNa7tDfFK7rU9DXdF-0" value="开始" style="strokeWidth=2;html=1;shape=mxgraph.flowchart.terminator;whiteSpace=wrap;fontSize=14;" vertex="1" parent="WIyWlLk6GJQsqaUBKTNV-1">
          <mxGeometry x="310" y="165" width="100" height="60" as="geometry" />
        </mxCell>
        <mxCell id="-oyaNa7tDfFK7rU9DXdF-1" value="结束" style="strokeWidth=2;html=1;shape=mxgraph.flowchart.terminator;whiteSpace=wrap;fontSize=14;" vertex="1" parent="WIyWlLk6GJQsqaUBKTNV-1">
          <mxGeometry x="468" y="703" width="100" height="60" as="geometry" />
        </mxCell>
        <mxCell id="-oyaNa7tDfFK7rU9DXdF-2" value="进入登录页面" style="rounded=1;whiteSpace=wrap;html=1;absoluteArcSize=1;arcSize=14;strokeWidth=2;fontSize=14;" vertex="1" parent="WIyWlLk6GJQsqaUBKTNV-1">
          <mxGeometry x="300" y="275" width="110" height="50" as="geometry" />
        </mxCell>
        <mxCell id="-oyaNa7tDfFK7rU9DXdF-7" value="" style="edgeStyle=orthogonalEdgeStyle;rounded=0;orthogonalLoop=1;jettySize=auto;html=1;" edge="1" parent="WIyWlLk6GJQsqaUBKTNV-1" source="-oyaNa7tDfFK7rU9DXdF-3" target="-oyaNa7tDfFK7rU9DXdF-2">
          <mxGeometry relative="1" as="geometry" />
        </mxCell>
        <mxCell id="-oyaNa7tDfFK7rU9DXdF-8" value="否" style="edgeLabel;html=1;align=center;verticalAlign=middle;resizable=0;points=[];" vertex="1" connectable="0" parent="-oyaNa7tDfFK7rU9DXdF-7">
          <mxGeometry x="-0.3467" y="4" relative="1" as="geometry">
            <mxPoint as="offset" />
          </mxGeometry>
        </mxCell>
        <mxCell id="-oyaNa7tDfFK7rU9DXdF-10" value="" style="edgeStyle=orthogonalEdgeStyle;rounded=0;orthogonalLoop=1;jettySize=auto;html=1;" edge="1" parent="WIyWlLk6GJQsqaUBKTNV-1" source="-oyaNa7tDfFK7rU9DXdF-3" target="-oyaNa7tDfFK7rU9DXdF-9">
          <mxGeometry relative="1" as="geometry" />
        </mxCell>
        <mxCell id="-oyaNa7tDfFK7rU9DXdF-11" value="是" style="edgeLabel;html=1;align=center;verticalAlign=middle;resizable=0;points=[];" vertex="1" connectable="0" parent="-oyaNa7tDfFK7rU9DXdF-10">
          <mxGeometry x="-0.31" y="1" relative="1" as="geometry">
            <mxPoint as="offset" />
          </mxGeometry>
        </mxCell>
        <mxCell id="-oyaNa7tDfFK7rU9DXdF-3" value="是否已登录" style="shape=rhombus;perimeter=rhombusPerimeter;whiteSpace=wrap;html=1;align=center;fontSize=14;" vertex="1" parent="WIyWlLk6GJQsqaUBKTNV-1">
          <mxGeometry x="140" y="270" width="100" height="60" as="geometry" />
        </mxCell>
        <mxCell id="-oyaNa7tDfFK7rU9DXdF-6" value="" style="edgeStyle=orthogonalEdgeStyle;rounded=0;orthogonalLoop=1;jettySize=auto;html=1;" edge="1" parent="WIyWlLk6GJQsqaUBKTNV-1" source="-oyaNa7tDfFK7rU9DXdF-4" target="-oyaNa7tDfFK7rU9DXdF-3">
          <mxGeometry relative="1" as="geometry" />
        </mxCell>
        <mxCell id="-oyaNa7tDfFK7rU9DXdF-4" value="进入管理电子书页面" style="rounded=1;whiteSpace=wrap;html=1;absoluteArcSize=1;arcSize=14;strokeWidth=2;fontSize=14;" vertex="1" parent="WIyWlLk6GJQsqaUBKTNV-1">
          <mxGeometry x="135" y="170" width="110" height="50" as="geometry" />
        </mxCell>
        <mxCell id="-oyaNa7tDfFK7rU9DXdF-17" value="" style="edgeStyle=orthogonalEdgeStyle;rounded=0;orthogonalLoop=1;jettySize=auto;html=1;" edge="1" parent="WIyWlLk6GJQsqaUBKTNV-1" source="-oyaNa7tDfFK7rU9DXdF-9" target="-oyaNa7tDfFK7rU9DXdF-12">
          <mxGeometry relative="1" as="geometry" />
        </mxCell>
        <mxCell id="-oyaNa7tDfFK7rU9DXdF-18" style="edgeStyle=orthogonalEdgeStyle;rounded=0;orthogonalLoop=1;jettySize=auto;html=1;" edge="1" parent="WIyWlLk6GJQsqaUBKTNV-1" source="-oyaNa7tDfFK7rU9DXdF-9" target="-oyaNa7tDfFK7rU9DXdF-15">
          <mxGeometry relative="1" as="geometry" />
        </mxCell>
        <mxCell id="-oyaNa7tDfFK7rU9DXdF-9" value="管理电子书" style="rounded=1;whiteSpace=wrap;html=1;absoluteArcSize=1;arcSize=14;strokeWidth=2;fontSize=14;" vertex="1" parent="WIyWlLk6GJQsqaUBKTNV-1">
          <mxGeometry x="135" y="382" width="110" height="50" as="geometry" />
        </mxCell>
        <mxCell id="-oyaNa7tDfFK7rU9DXdF-14" value="" style="edgeStyle=orthogonalEdgeStyle;rounded=0;orthogonalLoop=1;jettySize=auto;html=1;" edge="1" parent="WIyWlLk6GJQsqaUBKTNV-1" source="-oyaNa7tDfFK7rU9DXdF-12" target="-oyaNa7tDfFK7rU9DXdF-13">
          <mxGeometry relative="1" as="geometry" />
        </mxCell>
        <mxCell id="-oyaNa7tDfFK7rU9DXdF-12" value="点击新增" style="rounded=1;whiteSpace=wrap;html=1;absoluteArcSize=1;arcSize=14;strokeWidth=2;fontSize=14;" vertex="1" parent="WIyWlLk6GJQsqaUBKTNV-1">
          <mxGeometry x="135" y="481" width="110" height="50" as="geometry" />
        </mxCell>
        <mxCell id="-oyaNa7tDfFK7rU9DXdF-25" value="" style="edgeStyle=orthogonalEdgeStyle;rounded=0;orthogonalLoop=1;jettySize=auto;html=1;" edge="1" parent="WIyWlLk6GJQsqaUBKTNV-1" source="-oyaNa7tDfFK7rU9DXdF-13" target="-oyaNa7tDfFK7rU9DXdF-24">
          <mxGeometry relative="1" as="geometry" />
        </mxCell>
        <mxCell id="-oyaNa7tDfFK7rU9DXdF-13" value="本地缓存Pdf或Epub文件" style="rounded=1;whiteSpace=wrap;html=1;absoluteArcSize=1;arcSize=14;strokeWidth=2;fontSize=14;" vertex="1" parent="WIyWlLk6GJQsqaUBKTNV-1">
          <mxGeometry x="129" y="588.5" width="122" height="52" as="geometry" />
        </mxCell>
        <mxCell id="-oyaNa7tDfFK7rU9DXdF-20" value="" style="edgeStyle=orthogonalEdgeStyle;rounded=0;orthogonalLoop=1;jettySize=auto;html=1;" edge="1" parent="WIyWlLk6GJQsqaUBKTNV-1" source="-oyaNa7tDfFK7rU9DXdF-15" target="-oyaNa7tDfFK7rU9DXdF-19">
          <mxGeometry relative="1" as="geometry" />
        </mxCell>
        <mxCell id="-oyaNa7tDfFK7rU9DXdF-15" value="点击编辑" style="rounded=1;whiteSpace=wrap;html=1;absoluteArcSize=1;arcSize=14;strokeWidth=2;fontSize=14;" vertex="1" parent="WIyWlLk6GJQsqaUBKTNV-1">
          <mxGeometry x="300" y="479" width="110" height="50" as="geometry" />
        </mxCell>
        <mxCell id="-oyaNa7tDfFK7rU9DXdF-34" value="" style="edgeStyle=orthogonalEdgeStyle;rounded=0;orthogonalLoop=1;jettySize=auto;html=1;" edge="1" parent="WIyWlLk6GJQsqaUBKTNV-1" source="-oyaNa7tDfFK7rU9DXdF-16" target="-oyaNa7tDfFK7rU9DXdF-1">
          <mxGeometry relative="1" as="geometry" />
        </mxCell>
        <mxCell id="-oyaNa7tDfFK7rU9DXdF-16" value="上传服务器" style="rounded=1;whiteSpace=wrap;html=1;absoluteArcSize=1;arcSize=14;strokeWidth=2;fontSize=14;" vertex="1" parent="WIyWlLk6GJQsqaUBKTNV-1">
          <mxGeometry x="299.5" y="708" width="110" height="50" as="geometry" />
        </mxCell>
        <mxCell id="-oyaNa7tDfFK7rU9DXdF-21" value="" style="edgeStyle=orthogonalEdgeStyle;rounded=0;orthogonalLoop=1;jettySize=auto;html=1;" edge="1" parent="WIyWlLk6GJQsqaUBKTNV-1" source="-oyaNa7tDfFK7rU9DXdF-19" target="-oyaNa7tDfFK7rU9DXdF-13">
          <mxGeometry relative="1" as="geometry" />
        </mxCell>
        <mxCell id="-oyaNa7tDfFK7rU9DXdF-22" value="是" style="edgeLabel;html=1;align=center;verticalAlign=middle;resizable=0;points=[];" vertex="1" connectable="0" parent="-oyaNa7tDfFK7rU9DXdF-21">
          <mxGeometry x="-0.2" y="-3" relative="1" as="geometry">
            <mxPoint as="offset" />
          </mxGeometry>
        </mxCell>
        <mxCell id="-oyaNa7tDfFK7rU9DXdF-31" value="" style="edgeStyle=orthogonalEdgeStyle;rounded=0;orthogonalLoop=1;jettySize=auto;html=1;" edge="1" parent="WIyWlLk6GJQsqaUBKTNV-1" source="-oyaNa7tDfFK7rU9DXdF-19" target="-oyaNa7tDfFK7rU9DXdF-16">
          <mxGeometry relative="1" as="geometry" />
        </mxCell>
        <mxCell id="-oyaNa7tDfFK7rU9DXdF-32" value="否" style="edgeLabel;html=1;align=center;verticalAlign=middle;resizable=0;points=[];" vertex="1" connectable="0" parent="-oyaNa7tDfFK7rU9DXdF-31">
          <mxGeometry x="-0.0035" y="1" relative="1" as="geometry">
            <mxPoint as="offset" />
          </mxGeometry>
        </mxCell>
        <mxCell id="-oyaNa7tDfFK7rU9DXdF-19" value="是否更新文件" style="shape=rhombus;perimeter=rhombusPerimeter;whiteSpace=wrap;html=1;align=center;fontSize=14;" vertex="1" parent="WIyWlLk6GJQsqaUBKTNV-1">
          <mxGeometry x="300" y="578" width="109" height="73" as="geometry" />
        </mxCell>
        <mxCell id="-oyaNa7tDfFK7rU9DXdF-26" value="" style="edgeStyle=orthogonalEdgeStyle;rounded=0;orthogonalLoop=1;jettySize=auto;html=1;" edge="1" parent="WIyWlLk6GJQsqaUBKTNV-1" source="-oyaNa7tDfFK7rU9DXdF-24" target="-oyaNa7tDfFK7rU9DXdF-16">
          <mxGeometry relative="1" as="geometry" />
        </mxCell>
        <mxCell id="-oyaNa7tDfFK7rU9DXdF-27" value="否" style="edgeLabel;html=1;align=center;verticalAlign=middle;resizable=0;points=[];" vertex="1" connectable="0" parent="-oyaNa7tDfFK7rU9DXdF-26">
          <mxGeometry x="-0.4067" y="-3" relative="1" as="geometry">
            <mxPoint as="offset" />
          </mxGeometry>
        </mxCell>
        <mxCell id="-oyaNa7tDfFK7rU9DXdF-29" value="" style="edgeStyle=orthogonalEdgeStyle;rounded=0;orthogonalLoop=1;jettySize=auto;html=1;" edge="1" parent="WIyWlLk6GJQsqaUBKTNV-1" source="-oyaNa7tDfFK7rU9DXdF-24" target="-oyaNa7tDfFK7rU9DXdF-28">
          <mxGeometry relative="1" as="geometry" />
        </mxCell>
        <mxCell id="-oyaNa7tDfFK7rU9DXdF-30" value="是" style="edgeLabel;html=1;align=center;verticalAlign=middle;resizable=0;points=[];" vertex="1" connectable="0" parent="-oyaNa7tDfFK7rU9DXdF-29">
          <mxGeometry x="-0.4803" y="-1" relative="1" as="geometry">
            <mxPoint as="offset" />
          </mxGeometry>
        </mxCell>
        <mxCell id="-oyaNa7tDfFK7rU9DXdF-24" value="是否编辑" style="shape=rhombus;perimeter=rhombusPerimeter;whiteSpace=wrap;html=1;align=center;fontSize=14;" vertex="1" parent="WIyWlLk6GJQsqaUBKTNV-1">
          <mxGeometry x="140" y="698" width="101" height="70" as="geometry" />
        </mxCell>
        <mxCell id="-oyaNa7tDfFK7rU9DXdF-33" style="edgeStyle=orthogonalEdgeStyle;rounded=0;orthogonalLoop=1;jettySize=auto;html=1;exitX=1;exitY=0.5;exitDx=0;exitDy=0;entryX=0.5;entryY=1;entryDx=0;entryDy=0;" edge="1" parent="WIyWlLk6GJQsqaUBKTNV-1" source="-oyaNa7tDfFK7rU9DXdF-28" target="-oyaNa7tDfFK7rU9DXdF-16">
          <mxGeometry relative="1" as="geometry" />
        </mxCell>
        <mxCell id="-oyaNa7tDfFK7rU9DXdF-28" value="删除原有文件" style="rounded=1;whiteSpace=wrap;html=1;absoluteArcSize=1;arcSize=14;strokeWidth=2;fontSize=14;" vertex="1" parent="WIyWlLk6GJQsqaUBKTNV-1">
          <mxGeometry x="135" y="820" width="110" height="50" as="geometry" />
        </mxCell>
      </root>
    </mxGraphModel>
  </diagram>
</mxfile>
